<svg id="visual" viewBox="0 0 1000 450" width="1000" height="450" xmlns="http://www.w3.org/2000/svg" xmlns:xlink="http://www.w3.org/1999/xlink" version="1.1"><path d="M0 112L12.8 114.8C25.7 117.7 51.3 123.3 77 127.2C102.7 131 128.3 133 154 139C179.7 145 205.3 155 231 152.8C256.7 150.7 282.3 136.3 308 132.8C333.7 129.3 359.3 136.7 385 134.2C410.7 131.7 436.3 119.3 461.8 115.7C487.3 112 512.7 117 538.2 119.8C563.7 122.7 589.3 123.3 615 131.2C640.7 139 666.3 154 692 158.2C717.7 162.3 743.3 155.7 769 145C794.7 134.3 820.3 119.7 846 113C871.7 106.3 897.3 107.7 923 106C948.7 104.3 974.3 99.7 987.2 97.3L1000 95L1000 451L987.2 451C974.3 451 948.7 451 923 451C897.3 451 871.7 451 846 451C820.3 451 794.7 451 769 451C743.3 451 717.7 451 692 451C666.3 451 640.7 451 615 451C589.3 451 563.7 451 538.2 451C512.7 451 487.3 451 461.8 451C436.3 451 410.7 451 385 451C359.3 451 333.7 451 308 451C282.3 451 256.7 451 231 451C205.3 451 179.7 451 154 451C128.3 451 102.7 451 77 451C51.3 451 25.7 451 12.8 451L0 451Z" fill="#ffffff"></path><path d="M0 126L12.8 127C25.7 128 51.3 130 77 135.8C102.7 141.7 128.3 151.3 154 159C179.7 166.7 205.3 172.3 231 171.2C256.7 170 282.3 162 308 157.7C333.7 153.3 359.3 152.7 385 153.8C410.7 155 436.3 158 461.8 160.3C487.3 162.7 512.7 164.3 538.2 164.3C563.7 164.3 589.3 162.7 615 162.3C640.7 162 666.3 163 692 165.3C717.7 167.7 743.3 171.3 769 174C794.7 176.7 820.3 178.3 846 174.2C871.7 170 897.3 160 923 161C948.7 162 974.3 174 987.2 180L1000 186L1000 451L987.2 451C974.3 451 948.7 451 923 451C897.3 451 871.7 451 846 451C820.3 451 794.7 451 769 451C743.3 451 717.7 451 692 451C666.3 451 640.7 451 615 451C589.3 451 563.7 451 538.2 451C512.7 451 487.3 451 461.8 451C436.3 451 410.7 451 385 451C359.3 451 333.7 451 308 451C282.3 451 256.7 451 231 451C205.3 451 179.7 451 154 451C128.3 451 102.7 451 77 451C51.3 451 25.7 451 12.8 451L0 451Z" fill="#f0f0f0"></path><path d="M0 170L12.8 177.3C25.7 184.7 51.3 199.3 77 205.7C102.7 212 128.3 210 154 211.3C179.7 212.7 205.3 217.3 231 219.2C256.7 221 282.3 220 308 217.7C333.7 215.3 359.3 211.7 385 209.3C410.7 207 436.3 206 461.8 200.5C487.3 195 512.7 185 538.2 184.7C563.7 184.3 589.3 193.7 615 196.2C640.7 198.7 666.3 194.3 692 192C717.7 189.7 743.3 189.3 769 185.8C794.7 182.3 820.3 175.7 846 179.7C871.7 183.7 897.3 198.3 923 206.8C948.7 215.3 974.3 217.7 987.2 218.8L1000 220L1000 451L987.2 451C974.3 451 948.7 451 923 451C897.3 451 871.7 451 846 451C820.3 451 794.7 451 769 451C743.3 451 717.7 451 692 451C666.3 451 640.7 451 615 451C589.3 451 563.7 451 538.2 451C512.7 451 487.3 451 461.8 451C436.3 451 410.7 451 385 451C359.3 451 333.7 451 308 451C282.3 451 256.7 451 231 451C205.3 451 179.7 451 154 451C128.3 451 102.7 451 77 451C51.3 451 25.7 451 12.8 451L0 451Z" fill="#e0e0e0"></path><path d="M0 254L12.8 247.8C25.7 241.7 51.3 229.3 77 227C102.7 224.7 128.3 232.3 154 229.3C179.7 226.3 205.3 212.7 231 210.3C256.7 208 282.3 217 308 220.2C333.7 223.3 359.3 220.7 385 217C410.7 213.3 436.3 208.7 461.8 206.8C487.3 205 512.7 206 538.2 211.7C563.7 217.3 589.3 227.7 615 232.7C640.7 237.7 666.3 237.3 692 234.2C717.7 231 743.3 225 769 218.2C794.7 211.3 820.3 203.7 846 204.8C871.7 206 897.3 216 923 220C948.7 224 974.3 222 987.2 221L1000 220L1000 451L987.2 451C974.3 451 948.7 451 923 451C897.3 451 871.7 451 846 451C820.3 451 794.7 451 769 451C743.3 451 717.7 451 692 451C666.3 451 640.7 451 615 451C589.3 451 563.7 451 538.2 451C512.7 451 487.3 451 461.8 451C436.3 451 410.7 451 385 451C359.3 451 333.7 451 308 451C282.3 451 256.7 451 231 451C205.3 451 179.7 451 154 451C128.3 451 102.7 451 77 451C51.3 451 25.7 451 12.8 451L0 451Z" fill="#d1d1d1"></path><path d="M0 259L12.8 261.7C25.7 264.3 51.3 269.7 77 266.5C102.7 263.3 128.3 251.7 154 247.7C179.7 243.7 205.3 247.3 231 250.2C256.7 253 282.3 255 308 259.8C333.7 264.7 359.3 272.3 385 271.5C410.7 270.7 436.3 261.3 461.8 258.2C487.3 255 512.7 258 538.2 260.2C563.7 262.3 589.3 263.7 615 262.3C640.7 261 666.3 257 692 259.2C717.7 261.3 743.3 269.7 769 268.7C794.7 267.7 820.3 257.3 846 249.5C871.7 241.7 897.3 236.3 923 239.7C948.7 243 974.3 255 987.2 261L1000 267L1000 451L987.2 451C974.3 451 948.7 451 923 451C897.3 451 871.7 451 846 451C820.3 451 794.7 451 769 451C743.3 451 717.7 451 692 451C666.3 451 640.7 451 615 451C589.3 451 563.7 451 538.2 451C512.7 451 487.3 451 461.8 451C436.3 451 410.7 451 385 451C359.3 451 333.7 451 308 451C282.3 451 256.7 451 231 451C205.3 451 179.7 451 154 451C128.3 451 102.7 451 77 451C51.3 451 25.7 451 12.8 451L0 451Z" fill="#c2c2c2"></path><path d="M0 265L12.8 268.8C25.7 272.7 51.3 280.3 77 283.5C102.7 286.7 128.3 285.3 154 287.8C179.7 290.3 205.3 296.7 231 300C256.7 303.3 282.3 303.7 308 303.8C333.7 304 359.3 304 385 302.5C410.7 301 436.3 298 461.8 297C487.3 296 512.7 297 538.2 293C563.7 289 589.3 280 615 279C640.7 278 666.3 285 692 288.7C717.7 292.3 743.3 292.7 769 288.3C794.7 284 820.3 275 846 276.7C871.7 278.3 897.3 290.7 923 296.8C948.7 303 974.3 303 987.2 303L1000 303L1000 451L987.2 451C974.3 451 948.7 451 923 451C897.3 451 871.7 451 846 451C820.3 451 794.7 451 769 451C743.3 451 717.7 451 692 451C666.3 451 640.7 451 615 451C589.3 451 563.7 451 538.2 451C512.7 451 487.3 451 461.8 451C436.3 451 410.7 451 385 451C359.3 451 333.7 451 308 451C282.3 451 256.7 451 231 451C205.3 451 179.7 451 154 451C128.3 451 102.7 451 77 451C51.3 451 25.7 451 12.8 451L0 451Z" fill="#b4b4b4"></path><path d="M0 323L12.8 319.5C25.7 316 51.3 309 77 306.7C102.7 304.3 128.3 306.7 154 308.3C179.7 310 205.3 311 231 310C256.7 309 282.3 306 308 304.3C333.7 302.7 359.3 302.3 385 304.5C410.7 306.7 436.3 311.3 461.8 315.8C487.3 320.3 512.7 324.7 538.2 327.7C563.7 330.7 589.3 332.3 615 328.7C640.7 325 666.3 316 692 314.7C717.7 313.3 743.3 319.7 769 322.8C794.7 326 820.3 326 846 322.3C871.7 318.7 897.3 311.3 923 313C948.7 314.7 974.3 325.3 987.2 330.7L1000 336L1000 451L987.2 451C974.3 451 948.7 451 923 451C897.3 451 871.7 451 846 451C820.3 451 794.7 451 769 451C743.3 451 717.7 451 692 451C666.3 451 640.7 451 615 451C589.3 451 563.7 451 538.2 451C512.7 451 487.3 451 461.8 451C436.3 451 410.7 451 385 451C359.3 451 333.7 451 308 451C282.3 451 256.7 451 231 451C205.3 451 179.7 451 154 451C128.3 451 102.7 451 77 451C51.3 451 25.7 451 12.8 451L0 451Z" fill="#a5a5a5"></path><path d="M0 351L12.8 352C25.7 353 51.3 355 77 354.7C102.7 354.3 128.3 351.7 154 349.8C179.7 348 205.3 347 231 347.5C256.7 348 282.3 350 308 350.2C333.7 350.3 359.3 348.7 385 347C410.7 345.3 436.3 343.7 461.8 346.3C487.3 349 512.7 356 538.2 359C563.7 362 589.3 361 615 360C640.7 359 666.3 358 692 352.8C717.7 347.7 743.3 338.3 769 338.8C794.7 339.3 820.3 349.7 846 355.5C871.7 361.3 897.3 362.7 923 357.3C948.7 352 974.3 340 987.2 334L1000 328L1000 451L987.2 451C974.3 451 948.7 451 923 451C897.3 451 871.7 451 846 451C820.3 451 794.7 451 769 451C743.3 451 717.7 451 692 451C666.3 451 640.7 451 615 451C589.3 451 563.7 451 538.2 451C512.7 451 487.3 451 461.8 451C436.3 451 410.7 451 385 451C359.3 451 333.7 451 308 451C282.3 451 256.7 451 231 451C205.3 451 179.7 451 154 451C128.3 451 102.7 451 77 451C51.3 451 25.7 451 12.8 451L0 451Z" fill="#979797"></path><path d="M0 383L12.8 381.7C25.7 380.3 51.3 377.7 77 376.3C102.7 375 128.3 375 154 378C179.7 381 205.3 387 231 388.2C256.7 389.3 282.3 385.7 308 382C333.7 378.3 359.3 374.7 385 375.3C410.7 376 436.3 381 461.8 381C487.3 381 512.7 376 538.2 375.2C563.7 374.3 589.3 377.7 615 378C640.7 378.3 666.3 375.7 692 374.7C717.7 373.7 743.3 374.3 769 376.5C794.7 378.7 820.3 382.3 846 381.5C871.7 380.7 897.3 375.3 923 373.5C948.7 371.7 974.3 373.3 987.2 374.2L1000 375L1000 451L987.2 451C974.3 451 948.7 451 923 451C897.3 451 871.7 451 846 451C820.3 451 794.7 451 769 451C743.3 451 717.7 451 692 451C666.3 451 640.7 451 615 451C589.3 451 563.7 451 538.2 451C512.7 451 487.3 451 461.8 451C436.3 451 410.7 451 385 451C359.3 451 333.7 451 308 451C282.3 451 256.7 451 231 451C205.3 451 179.7 451 154 451C128.3 451 102.7 451 77 451C51.3 451 25.7 451 12.8 451L0 451Z" fill="#8a8a8a"></path><path d="M0 415L12.8 415.8C25.7 416.7 51.3 418.3 77 416C102.7 413.7 128.3 407.3 154 407.3C179.7 407.3 205.3 413.7 231 416.2C256.7 418.7 282.3 417.3 308 414.8C333.7 412.3 359.3 408.7 385 405.8C410.7 403 436.3 401 461.8 402C487.3 403 512.7 407 538.2 407.3C563.7 407.7 589.3 404.3 615 402.5C640.7 400.7 666.3 400.3 692 401.2C717.7 402 743.3 404 769 403.5C794.7 403 820.3 400 846 399.7C871.7 399.3 897.3 401.7 923 404.8C948.7 408 974.3 412 987.2 414L1000 416L1000 451L987.2 451C974.3 451 948.7 451 923 451C897.3 451 871.7 451 846 451C820.3 451 794.7 451 769 451C743.3 451 717.7 451 692 451C666.3 451 640.7 451 615 451C589.3 451 563.7 451 538.2 451C512.7 451 487.3 451 461.8 451C436.3 451 410.7 451 385 451C359.3 451 333.7 451 308 451C282.3 451 256.7 451 231 451C205.3 451 179.7 451 154 451C128.3 451 102.7 451 77 451C51.3 451 25.7 451 12.8 451L0 451Z" fill="#7c7c7c"></path></svg>