<svg id="visual" viewBox="0 0 900 100" width="900" height="100" xmlns="http://www.w3.org/2000/svg" xmlns:xlink="http://www.w3.org/1999/xlink" version="1.1"><path d="M0 49L38 43L75 57L113 50L150 41L188 43L225 50L263 45L300 56L338 43L375 44L413 42L450 58L487 56L525 48L563 53L600 57L638 56L675 54L713 59L750 48L788 57L825 43L863 46L900 49L900 101L863 101L825 101L788 101L750 101L713 101L675 101L638 101L600 101L563 101L525 101L487 101L450 101L413 101L375 101L338 101L300 101L263 101L225 101L188 101L150 101L113 101L75 101L38 101L0 101Z" fill="#f6eee3" stroke-linecap="square" stroke-linejoin="bevel"></path></svg>